<?xml version="1.0" standalone="no"?>
<!DOCTYPE svg PUBLIC "-//W3C//DTD SVG 20010904//EN"
 "http://www.w3.org/TR/2001/REC-SVG-20010904/DTD/svg10.dtd">
<svg version="1.0" xmlns="http://www.w3.org/2000/svg"
 width="500.000000pt" height="500.000000pt" viewBox="0 0 500.000000 500.000000"
 preserveAspectRatio="xMidYMid meet">

<g transform="translate(0.000000,500.000000) scale(0.100000,-0.100000)"
fill="#000000" stroke="none">
<path d="M3340 4361 c-158 -34 -304 -86 -489 -172 l-103 -49 -160 0 c-201 0
-333 -19 -489 -71 -386 -127 -700 -384 -888 -723 -122 -222 -179 -435 -196
-731 l-7 -120 -69 -122 c-218 -382 -313 -689 -295 -954 14 -227 105 -362 292
-436 65 -26 79 -27 224 -28 129 0 171 4 250 23 302 74 604 215 867 403 86 63
93 66 92 47 0 -11 -65 -69 -234 -210 -84 -70 -98 -85 -91 -96 9 -14 80 -37
201 -64 135 -30 456 -32 610 -4 326 59 605 210 835 452 203 213 322 431 394
722 44 176 45 170 -12 121 -79 -69 -162 -89 -408 -96 l-201 -6 -6 -222 c-6
-238 -10 -256 -60 -304 -60 -55 -185 -30 -223 45 -18 37 -19 70 -22 639 -3
678 -6 651 73 690 37 19 59 20 335 20 314 -1 366 -7 460 -55 22 -11 40 -16 40
-11 0 12 -65 172 -90 221 l-20 39 25 63 c14 35 39 115 56 178 26 98 32 139 36
272 5 150 4 161 -20 240 -44 139 -132 231 -272 284 -61 23 -88 27 -210 30
-110 3 -159 0 -225 -15z m477 -225 c167 -76 230 -243 189 -497 -16 -97 -61
-255 -76 -264 -5 -3 -26 20 -46 52 -82 128 -238 295 -370 396 -97 74 -224 147
-255 147 -61 0 -398 -134 -631 -251 -76 -38 -142 -69 -148 -69 -40 0 25 47
291 211 218 134 365 203 550 257 152 45 192 51 319 48 102 -2 122 -6 177 -30z
m-2717 -2080 c0 -22 117 -252 161 -319 130 -194 343 -395 552 -521 15 -9 27
-20 27 -25 0 -11 -201 -97 -297 -127 -309 -96 -554 -30 -645 172 -27 61 -36
228 -19 330 23 132 113 374 175 472 25 40 46 48 46 18z"/>
<path d="M4121 3422 c-50 -25 -74 -63 -74 -116 0 -84 62 -140 147 -133 41 4
55 10 82 40 43 46 52 94 28 144 -37 74 -113 101 -183 65z m91 -2 c102 -29 121
-166 31 -221 -101 -63 -224 54 -170 161 13 25 71 70 91 70 6 0 28 -5 48 -10z"/>
<path d="M4114 3356 c-2 -12 -3 -32 0 -46 2 -14 5 -38 5 -53 1 -34 21 -26 21
9 0 35 34 32 57 -6 9 -16 21 -30 25 -30 12 0 9 13 -8 38 -15 21 -15 25 1 42
24 26 11 60 -23 61 -15 0 -37 2 -50 3 -16 2 -24 -4 -28 -18z m85 -5 c23 -15 5
-41 -29 -41 -25 0 -30 4 -30 25 0 19 5 25 23 25 12 0 28 -4 36 -9z"/>
<path d="M3614 2861 c-46 -12 -55 -20 -48 -47 5 -19 2 -24 -14 -24 -27 0 -44
-24 -37 -53 5 -19 2 -25 -14 -30 -22 -5 -29 -41 -11 -52 22 -14 -4 -25 -60
-25 -55 0 -90 -15 -90 -39 0 -28 38 -36 173 -39 77 -1 143 -5 146 -8 3 -3 -6
-15 -22 -26 -34 -24 -49 -51 -41 -72 14 -36 85 -6 164 69 19 19 51 41 71 49
41 17 86 65 95 102 14 53 -2 115 -38 151 -29 28 -45 36 -99 43 -74 11 -131 11
-175 1z"/>
</g>
</svg>
